<?xml version="1.0" encoding="UTF-8" standalone="no"?>
<!-- Created with Inkscape (http://www.inkscape.org/) -->

<svg
   xmlns:dc="http://purl.org/dc/elements/1.1/"
   xmlns:cc="http://creativecommons.org/ns#"
   xmlns:rdf="http://www.w3.org/1999/02/22-rdf-syntax-ns#"
   xmlns:svg="http://www.w3.org/2000/svg"
   xmlns="http://www.w3.org/2000/svg"
   xmlns:sodipodi="http://sodipodi.sourceforge.net/DTD/sodipodi-0.dtd"
   xmlns:inkscape="http://www.inkscape.org/namespaces/inkscape"
   width="210mm"
   height="297mm"
   viewBox="0 0 210 297"
   version="1.1"
   id="svg536"
   inkscape:version="0.92.1 r15371"
   sodipodi:docname="d1_laser_closed_box.svg">
  <defs
     id="defs530" />
  <sodipodi:namedview
     id="base"
     pagecolor="#ffffff"
     bordercolor="#666666"
     borderopacity="1.0"
     inkscape:pageopacity="0.0"
     inkscape:pageshadow="2"
     inkscape:zoom="0.82441406"
     inkscape:cx="448.51931"
     inkscape:cy="802.59654"
     inkscape:document-units="mm"
     inkscape:current-layer="layer1"
     showgrid="false"
     inkscape:window-width="1364"
     inkscape:window-height="766"
     inkscape:window-x="0"
     inkscape:window-y="0"
     inkscape:window-maximized="1" />
  <metadata
     id="metadata533">
    <rdf:RDF>
      <cc:Work
         rdf:about="">
        <dc:format>image/svg+xml</dc:format>
        <dc:type
           rdf:resource="http://purl.org/dc/dcmitype/StillImage" />
        <dc:title></dc:title>
      </cc:Work>
    </rdf:RDF>
  </metadata>
  <g
     inkscape:label="Layer 1"
     inkscape:groupmode="layer"
     id="layer1">
    <g
       id="Layer1000"
       transform="matrix(0.26458333,0,0,0.26458333,-2.7919588,-26.807753)">
      <path
         d="m 34.8891,652.5567 h 28.6021 c 0.1559,0 0.2889,-0.121 0.2889,-0.2891 v -8.504 c 0,0.1559 -0.125,0.2892 -0.2889,0.2892 h 17.0071 c -0.1562,0 -0.2892,-0.1211 -0.2892,-0.2892 v 8.504 c 0,0.1561 0.1211,0.2891 0.2892,0.2891 h 17.0078 c 0.1559,0 0.2892,-0.121 0.2892,-0.2891 v -8.504 c 0,0.1559 -0.125,0.2892 -0.2892,0.2892 h 17.0082 c -0.1562,0 -0.2891,-0.1211 -0.2891,-0.2892 v 8.504 c 0,0.1561 0.121,0.2891 0.2891,0.2891 h 28.6019 8.503 c 0.1531,0 0.2861,-0.121 0.2861,-0.2891 v -8.504 -22.676 c 0,-0.1559 -0.1211,-0.2889 -0.2861,-0.2889 h -8.503 c 0.1519,0 0.2851,0.1208 0.2851,0.2889 v -17.007 c 0,0.1519 -0.121,0.2851 -0.2851,0.2851 h 8.503 c 0.1531,0 0.2861,-0.121 0.2861,-0.2851 v -17.0079 c 0,-0.1562 -0.1211,-0.2891 -0.2861,-0.2891 h -8.503 c 0.1519,0 0.2851,0.121 0.2851,0.2891 v -17.0082 c 0,0.1523 -0.121,0.2852 -0.2851,0.2852 h 8.503 c 0.1531,0 0.2861,-0.121 0.2861,-0.2852 v -22.68 -8.5039 c 0,-0.1519 -0.1211,-0.2849 -0.2861,-0.2849 h -8.503 -28.6019 c -0.1562,0 -0.2891,0.1211 -0.2891,0.2849 v 8.5039 c 0,-0.1519 0.121,-0.2848 0.2891,-0.2848 H 97.5061 c 0.1559,0 0.2892,0.121 0.2892,0.2848 v -8.5039 c 0,-0.1519 -0.125,-0.2849 -0.2892,-0.2849 H 80.4983 c -0.1562,0 -0.2892,0.1211 -0.2892,0.2849 v 8.5039 c 0,-0.1519 0.1211,-0.2848 0.2892,-0.2848 H 63.4912 c 0.1559,0 0.2889,0.121 0.2889,0.2848 v -8.5039 c 0,-0.1519 -0.125,-0.2849 -0.2889,-0.2849 H 34.8891 26.3852 c -0.1559,0 -0.2889,0.1211 -0.2889,0.2849 v 8.5039 22.68 c 0,0.1523 0.1208,0.2852 0.2889,0.2852 h 8.5039 c -0.1559,0 -0.2888,-0.121 -0.2888,-0.2852 v 17.0082 c 0,-0.1562 0.121,-0.2891 0.2888,-0.2891 h -8.5039 c -0.1559,0 -0.2889,0.121 -0.2889,0.2891 v 17.0079 c 0,0.1519 0.1208,0.2851 0.2889,0.2851 h 8.5039 c -0.1559,0 -0.2888,-0.121 -0.2888,-0.2851 v 17.007 c 0,-0.1559 0.121,-0.2889 0.2888,-0.2889 h -8.5039 c -0.1559,0 -0.2889,0.1208 -0.2889,0.2889 v 22.676 8.504 c 0,0.1561 0.1208,0.2891 0.2889,0.2891 z"
         style="fill:none;stroke:#000000;stroke-width:0.56690001;stroke-linecap:butt;stroke-linejoin:miter;stroke-dasharray:none"
         id="path3974"
         inkscape:connector-curvature="0" />
      <path
         d="m 164.9401,652.5567 h 18.426 c 0.152,0 0.2852,-0.121 0.2852,-0.2891 v -8.504 c 0,0.1559 -0.121,0.2892 -0.2852,0.2892 h 17.0071 c -0.1559,0 -0.2889,-0.1211 -0.2889,-0.2892 v 8.504 c 0,0.1561 0.1208,0.2891 0.2889,0.2891 h 17.0078 c 0.1531,0 0.2852,-0.121 0.2852,-0.2891 v -8.504 c 0,0.1559 -0.121,0.2892 -0.2852,0.2892 h 17.0082 c -0.1559,0 -0.2891,-0.1211 -0.2891,-0.2892 v 8.504 c 0,0.1561 0.121,0.2891 0.2891,0.2891 h 17.0079 c 0.1522,0 0.2851,-0.121 0.2851,-0.2891 v -8.504 c 0,0.1559 -0.121,0.2892 -0.2851,0.2892 h 17.0081 c -0.157,0 -0.2891,-0.1211 -0.2891,-0.2892 v 8.504 c 0,0.1561 0.121,0.2891 0.2891,0.2891 h 17.0071 c 0.157,0 0.2888,-0.121 0.2888,-0.2891 v -8.504 c 0,0.1559 -0.125,0.2892 -0.2888,0.2892 h 17.0078 c -0.1559,0 -0.2888,-0.1211 -0.2888,-0.2892 v 8.504 c 0,0.1561 0.121,0.2891 0.2888,0.2891 h 17.0082 c 0.1559,0 0.2888,-0.121 0.2888,-0.2891 v -8.504 c 0,0.1559 -0.125,0.2892 -0.2888,0.2892 h 17.0079 c -0.1559,0 -0.2889,-0.1211 -0.2889,-0.2892 v 8.504 c 0,0.1561 0.1208,0.2891 0.2889,0.2891 h 17.0081 c 0.1559,0 0.2889,-0.121 0.2889,-0.2891 v -8.504 c 0,0.1559 -0.125,0.2892 -0.2889,0.2892 h 17.0068 c -0.156,0 -0.2889,-0.1211 -0.2889,-0.2892 v 8.504 c 0,0.1561 0.1219,0.2891 0.2889,0.2891 h 17.0081 c 0.1571,0 0.2889,-0.121 0.2889,-0.2891 v -8.504 c 0,0.1559 -0.125,0.2892 -0.2889,0.2892 h 17.0079 c -0.1559,0 -0.2889,-0.1211 -0.2889,-0.2892 v 8.504 c 0,0.1561 0.1211,0.2891 0.2889,0.2891 h 18.426 c 0.152,0 0.2852,-0.121 0.2852,-0.2891 v -8.504 -22.676 c 0,0.1531 -0.121,0.286 -0.2852,0.286 h 8.504 c 0.1522,0 0.2851,-0.121 0.2851,-0.286 v -17.007 c 0,-0.1571 -0.121,-0.2889 -0.2851,-0.2889 h -8.504 c 0.152,0 0.2852,0.1211 0.2852,0.2889 v -17.0079 c 0,0.1519 -0.121,0.2849 -0.2852,0.2849 h 8.504 c 0.1522,0 0.2851,-0.1211 0.2851,-0.2849 v -17.0082 c 0,-0.1559 -0.121,-0.2888 -0.2851,-0.2888 h -8.504 c 0.152,0 0.2852,0.121 0.2852,0.2888 v -22.68 -8.5039 c 0,-0.1519 -0.121,-0.2849 -0.2852,-0.2849 h -18.426 c -0.1559,0 -0.2889,0.1211 -0.2889,0.2849 v 8.5039 c 0,-0.1519 0.1211,-0.2848 0.2889,-0.2848 h -17.0079 c 0.1571,0 0.2889,0.121 0.2889,0.2848 v -8.5039 c 0,-0.1519 -0.125,-0.2849 -0.2889,-0.2849 h -17.0081 c -0.156,0 -0.2889,0.1211 -0.2889,0.2849 v 8.5039 c 0,-0.1519 0.1219,-0.2848 0.2889,-0.2848 h -17.0068 c 0.1559,0 0.2889,0.121 0.2889,0.2848 v -8.5039 c 0,-0.1519 -0.125,-0.2849 -0.2889,-0.2849 h -17.0081 c -0.1559,0 -0.2889,0.1211 -0.2889,0.2849 v 8.5039 c 0,-0.1519 0.1208,-0.2848 0.2889,-0.2848 h -17.0079 c 0.1559,0 0.2888,0.121 0.2888,0.2848 v -8.5039 c 0,-0.1519 -0.125,-0.2849 -0.2888,-0.2849 h -17.0082 c -0.1559,0 -0.2888,0.1211 -0.2888,0.2849 v 8.5039 c 0,-0.1519 0.121,-0.2848 0.2888,-0.2848 h -17.0078 c 0.153,0 0.2888,0.121 0.2888,0.2848 v -8.5039 c 0,-0.1519 -0.125,-0.2849 -0.2888,-0.2849 h -17.0071 c -0.157,0 -0.2891,0.1211 -0.2891,0.2849 v 8.5039 c 0,-0.1519 0.121,-0.2848 0.2891,-0.2848 h -17.0081 c 0.1522,0 0.2851,0.121 0.2851,0.2848 v -8.5039 c 0,-0.1519 -0.121,-0.2849 -0.2851,-0.2849 h -17.0079 c -0.1559,0 -0.2891,0.1211 -0.2891,0.2849 v 8.5039 c 0,-0.1519 0.121,-0.2848 0.2891,-0.2848 H 217.381 c 0.1531,0 0.2852,0.121 0.2852,0.2848 v -8.5039 c 0,-0.1519 -0.121,-0.2849 -0.2852,-0.2849 h -17.0078 c -0.1559,0 -0.2889,0.1211 -0.2889,0.2849 v 8.5039 c 0,-0.1519 0.1208,-0.2848 0.2889,-0.2848 h -17.0071 c 0.152,0 0.2852,0.121 0.2852,0.2848 v -8.5039 c 0,-0.1519 -0.121,-0.2849 -0.2852,-0.2849 h -18.426 c -0.1559,0 -0.2889,0.1211 -0.2889,0.2849 v 8.5039 22.68 c 0,-0.1559 0.1211,-0.2888 0.2889,-0.2888 h -8.5039 c -0.1559,0 -0.2889,0.121 -0.2889,0.2888 v 17.0082 c 0,0.1519 0.1208,0.2849 0.2889,0.2849 h 8.5039 c -0.1559,0 -0.2889,-0.1211 -0.2889,-0.2849 v 17.0079 c 0,-0.1571 0.1211,-0.2889 0.2889,-0.2889 h -8.5039 c -0.1559,0 -0.2889,0.1211 -0.2889,0.2889 v 17.007 c 0,0.1531 0.1208,0.286 0.2889,0.286 h 8.5039 c -0.1559,0 -0.2889,-0.121 -0.2889,-0.286 v 22.676 8.504 c 0,0.1561 0.1211,0.2891 0.2889,0.2891 z"
         style="fill:none;stroke:#000000;stroke-width:0.56690001;stroke-linecap:butt;stroke-linejoin:miter;stroke-dasharray:none"
         id="path3976"
         inkscape:connector-curvature="0" />
      <path
         d="m 164.9401,534.3537 h 18.426 c 0.152,0 0.2852,-0.1211 0.2852,-0.2892 v -8.5039 c 0,0.1559 -0.121,0.2891 -0.2852,0.2891 h 17.0071 c -0.1559,0 -0.2889,-0.121 -0.2889,-0.2891 v 8.5039 c 0,0.1562 0.1208,0.2892 0.2889,0.2892 h 17.0078 c 0.1531,0 0.2852,-0.1211 0.2852,-0.2892 v -8.5039 c 0,0.1559 -0.121,0.2891 -0.2852,0.2891 h 17.0082 c -0.1559,0 -0.2891,-0.121 -0.2891,-0.2891 v 8.5039 c 0,0.1562 0.121,0.2892 0.2891,0.2892 h 17.0079 c 0.1522,0 0.2851,-0.1211 0.2851,-0.2892 v -8.5039 c 0,0.1559 -0.121,0.2891 -0.2851,0.2891 h 17.0081 c -0.157,0 -0.2891,-0.121 -0.2891,-0.2891 v 8.5039 c 0,0.1562 0.121,0.2892 0.2891,0.2892 h 17.0071 c 0.153,0 0.2888,-0.1211 0.2888,-0.2892 v -8.5039 c 0,0.1559 -0.125,0.2891 -0.2888,0.2891 h 17.0078 c -0.1559,0 -0.2888,-0.121 -0.2888,-0.2891 v 8.5039 c 0,0.1562 0.121,0.2892 0.2888,0.2892 h 17.0082 c 0.1559,0 0.2888,-0.1211 0.2888,-0.2892 v -8.5039 c 0,0.1559 -0.125,0.2891 -0.2888,0.2891 h 17.0079 c -0.1559,0 -0.2889,-0.121 -0.2889,-0.2891 v 8.5039 c 0,0.1562 0.1208,0.2892 0.2889,0.2892 h 17.0081 c 0.1559,0 0.2889,-0.1211 0.2889,-0.2892 v -8.5039 c 0,0.1559 -0.125,0.2891 -0.2889,0.2891 h 17.0068 c -0.156,0 -0.2889,-0.121 -0.2889,-0.2891 v 8.5039 c 0,0.1562 0.1219,0.2892 0.2889,0.2892 h 17.0081 c 0.1571,0 0.2889,-0.1211 0.2889,-0.2892 v -8.5039 c 0,0.1559 -0.125,0.2891 -0.2889,0.2891 h 17.0079 c -0.1559,0 -0.2889,-0.121 -0.2889,-0.2891 v 8.5039 c 0,0.1562 0.1211,0.2892 0.2889,0.2892 h 18.426 c 0.152,0 0.2852,-0.1211 0.2852,-0.2892 v -8.5039 -22.676 c 0,0.157 -0.121,0.2891 -0.2852,0.2891 h 8.504 c 0.1522,0 0.2851,-0.125 0.2851,-0.2891 v -17.0071 c 0,-0.157 -0.121,-0.2899 -0.2851,-0.2899 h -8.504 c 0.152,0 0.2852,0.1221 0.2852,0.2899 v -17.0078 c 0,0.1559 -0.121,0.2888 -0.2852,0.2888 h 8.504 c 0.1522,0 0.2851,-0.125 0.2851,-0.2888 v -17.0082 c 0,-0.1559 -0.121,-0.2888 -0.2851,-0.2888 h -8.504 c 0.152,0 0.2852,0.121 0.2852,0.2888 v -22.6757 -8.5043 c 0,-0.1559 -0.121,-0.2888 -0.2852,-0.2888 h -18.426 c -0.1559,0 -0.2889,0.121 -0.2889,0.2888 v 8.5043 c 0,-0.1562 0.1211,-0.2892 0.2889,-0.2892 h -17.0079 c 0.1571,0 0.2889,0.1211 0.2889,0.2892 v -8.5043 c 0,-0.1559 -0.125,-0.2888 -0.2889,-0.2888 h -17.0081 c -0.156,0 -0.2889,0.121 -0.2889,0.2888 v 8.5043 c 0,-0.1562 0.1219,-0.2892 0.2889,-0.2892 h -17.0068 c 0.1559,0 0.2889,0.1211 0.2889,0.2892 v -8.5043 c 0,-0.1559 -0.125,-0.2888 -0.2889,-0.2888 h -17.0081 c -0.1559,0 -0.2889,0.121 -0.2889,0.2888 v 8.5043 c 0,-0.1562 0.1208,-0.2892 0.2889,-0.2892 h -17.0079 c 0.1559,0 0.2888,0.1211 0.2888,0.2892 v -8.5043 c 0,-0.1559 -0.125,-0.2888 -0.2888,-0.2888 h -17.0082 c -0.1559,0 -0.2888,0.121 -0.2888,0.2888 v 8.5043 c 0,-0.1562 0.121,-0.2892 0.2888,-0.2892 h -17.0078 c 0.153,0 0.2888,0.1211 0.2888,0.2892 v -8.5043 c 0,-0.1559 -0.125,-0.2888 -0.2888,-0.2888 h -17.0071 c -0.157,0 -0.2891,0.121 -0.2891,0.2888 v 8.5043 c 0,-0.1562 0.121,-0.2892 0.2891,-0.2892 h -17.0081 c 0.1522,0 0.2851,0.1211 0.2851,0.2892 v -8.5043 c 0,-0.1559 -0.121,-0.2888 -0.2851,-0.2888 h -17.0079 c -0.1559,0 -0.2891,0.121 -0.2891,0.2888 v 8.5043 c 0,-0.1562 0.121,-0.2892 0.2891,-0.2892 H 217.381 c 0.1531,0 0.2852,0.1211 0.2852,0.2892 v -8.5043 c 0,-0.1559 -0.121,-0.2888 -0.2852,-0.2888 h -17.0078 c -0.1559,0 -0.2889,0.121 -0.2889,0.2888 v 8.5043 c 0,-0.1562 0.1208,-0.2892 0.2889,-0.2892 h -17.0071 c 0.152,0 0.2852,0.1211 0.2852,0.2892 v -8.5043 c 0,-0.1559 -0.121,-0.2888 -0.2852,-0.2888 h -18.426 c -0.1559,0 -0.2889,0.121 -0.2889,0.2888 v 8.5043 22.6757 c 0,-0.1559 0.1211,-0.2888 0.2889,-0.2888 h -8.5039 c -0.1559,0 -0.2889,0.121 -0.2889,0.2888 v 17.0082 c 0,0.1559 0.1208,0.2888 0.2889,0.2888 h 8.5039 c -0.1559,0 -0.2889,-0.125 -0.2889,-0.2888 v 17.0078 c 0,-0.157 0.1211,-0.2899 0.2889,-0.2899 h -8.5039 c -0.1559,0 -0.2889,0.1221 -0.2889,0.2899 v 17.0071 c 0,0.157 0.1208,0.2891 0.2889,0.2891 h 8.5039 c -0.1559,0 -0.2889,-0.125 -0.2889,-0.2891 v 22.676 8.5039 c 0,0.1562 0.1211,0.2892 0.2889,0.2892 z"
         style="fill:none;stroke:#000000;stroke-width:0.56690001;stroke-linecap:butt;stroke-linejoin:miter;stroke-dasharray:none"
         id="path3978"
         inkscape:connector-curvature="0" />
      <path
         d="m 34.8891,534.3537 h 28.6021 c 0.1559,0 0.2889,-0.1211 0.2889,-0.2892 v -8.5039 c 0,0.1559 -0.125,0.2891 -0.2889,0.2891 h 17.0071 c -0.1562,0 -0.2892,-0.121 -0.2892,-0.2891 v 8.5039 c 0,0.1562 0.1211,0.2892 0.2892,0.2892 h 17.0078 c 0.1559,0 0.2892,-0.1211 0.2892,-0.2892 v -8.5039 c 0,0.1559 -0.125,0.2891 -0.2892,0.2891 h 17.0082 c -0.1562,0 -0.2891,-0.121 -0.2891,-0.2891 v 8.5039 c 0,0.1562 0.121,0.2892 0.2891,0.2892 h 28.6019 8.503 c 0.1531,0 0.2861,-0.1211 0.2861,-0.2892 v -8.5039 -22.676 c 0,-0.1559 -0.1211,-0.2889 -0.2861,-0.2889 h -8.503 c 0.1519,0 0.2851,0.1211 0.2851,0.2889 v -17.0071 c 0,0.1562 -0.121,0.2892 -0.2851,0.2892 h 8.503 c 0.1531,0 0.2861,-0.125 0.2861,-0.2892 v -17.0078 c 0,-0.1571 -0.1211,-0.2892 -0.2861,-0.2892 h -8.503 c 0.1519,0 0.2851,0.1211 0.2851,0.2892 v -17.0082 c 0,0.1562 -0.121,0.2891 -0.2851,0.2891 h 8.503 c 0.1531,0 0.2861,-0.125 0.2861,-0.2891 v -22.6757 -8.5043 c 0,-0.1559 -0.1211,-0.2888 -0.2861,-0.2888 h -8.503 -28.6019 c -0.1562,0 -0.2891,0.121 -0.2891,0.2888 v 8.5043 c 0,-0.1562 0.121,-0.2892 0.2891,-0.2892 H 97.5061 c 0.1559,0 0.2892,0.1211 0.2892,0.2892 v -8.5043 c 0,-0.1559 -0.125,-0.2888 -0.2892,-0.2888 H 80.4983 c -0.1562,0 -0.2892,0.121 -0.2892,0.2888 v 8.5043 c 0,-0.1562 0.1211,-0.2892 0.2892,-0.2892 H 63.4912 c 0.1559,0 0.2889,0.1211 0.2889,0.2892 v -8.5043 c 0,-0.1559 -0.125,-0.2888 -0.2889,-0.2888 H 34.8891 26.3852 c -0.1559,0 -0.2889,0.121 -0.2889,0.2888 v 8.5043 22.6757 c 0,0.1562 0.1208,0.2891 0.2889,0.2891 h 8.5039 c -0.1559,0 -0.2888,-0.125 -0.2888,-0.2891 v 17.0082 c 0,-0.1571 0.121,-0.2892 0.2888,-0.2892 h -8.5039 c -0.1559,0 -0.2889,0.1211 -0.2889,0.2892 v 17.0078 c 0,0.1562 0.1208,0.2892 0.2889,0.2892 h 8.5039 c -0.1559,0 -0.2888,-0.125 -0.2888,-0.2892 v 17.0071 c 0,-0.1559 0.121,-0.2889 0.2888,-0.2889 h -8.5039 c -0.1559,0 -0.2889,0.1211 -0.2889,0.2889 v 22.676 8.5039 c 0,0.1562 0.1208,0.2892 0.2889,0.2892 z"
         style="fill:none;stroke:#000000;stroke-width:0.56690001;stroke-linecap:butt;stroke-linejoin:miter;stroke-dasharray:none"
         id="path3980"
         inkscape:connector-curvature="0" />
      <path
         d="m 34.8891,407.6467 h 28.6021 c -0.157,0 -0.2899,-0.121 -0.2899,-0.2891 v 8.5039 c 0,0.1562 0.1218,0.2891 0.2899,0.2891 h 17.0071 c 0.157,0 0.2888,-0.121 0.2888,-0.2891 v -8.5039 c 0,0.1562 -0.125,0.2891 -0.2888,0.2891 h 17.0078 c -0.1559,0 -0.2888,-0.121 -0.2888,-0.2891 v 8.5039 c 0,0.1562 0.1207,0.2891 0.2888,0.2891 h 17.0082 c 0.1559,0 0.2888,-0.121 0.2888,-0.2891 v -8.5039 c 0,0.1562 -0.125,0.2891 -0.2888,0.2891 h 28.6019 c 0.1519,0 0.2851,-0.121 0.2851,-0.2891 v -18.4221 c 0,0.1522 -0.121,0.2852 -0.2851,0.2852 h 8.503 c 0.1531,0 0.2861,-0.1211 0.2861,-0.2852 v -17.0079 c 0,-0.1559 -0.1211,-0.2891 -0.2861,-0.2891 h -8.503 c 0.1519,0 0.2851,0.121 0.2851,0.2891 v -17.0079 c 0,0.1528 -0.121,0.2861 -0.2851,0.2861 h 8.503 c 0.1531,0 0.2861,-0.1211 0.2861,-0.2861 v -17.007 c 0,-0.157 -0.1211,-0.2891 -0.2861,-0.2891 h -8.503 c 0.1519,0 0.2851,0.121 0.2851,0.2891 v -17.0081 c 0,0.1519 -0.121,0.2851 -0.2851,0.2851 h 8.503 c 0.1531,0 0.2861,-0.121 0.2861,-0.2851 v -17.0079 c 0,-0.1562 -0.1211,-0.2891 -0.2861,-0.2891 h -8.503 c 0.1519,0 0.2851,0.121 0.2851,0.2891 v -17.0121 c 0,0.157 -0.121,0.2891 -0.2851,0.2891 h 8.503 c 0.1531,0 0.2861,-0.121 0.2861,-0.2891 v -17.0071 c 0,-0.1527 -0.1211,-0.286 -0.2861,-0.286 h -8.503 c 0.1519,0 0.2851,0.1211 0.2851,0.286 v -17.0078 c 0,0.1559 -0.121,0.2888 -0.2851,0.2888 h 8.503 c 0.1531,0 0.2861,-0.1207 0.2861,-0.2888 v -17.0082 c 0,-0.1519 -0.1211,-0.2849 -0.2861,-0.2849 h -8.503 c 0.1519,0 0.2851,0.1211 0.2851,0.2849 v -17.0079 c 0,0.1559 -0.121,0.2889 -0.2851,0.2889 h 8.503 c 0.1531,0 0.2861,-0.1208 0.2861,-0.2889 v -17.0078 c 0,-0.1523 -0.1211,-0.2852 -0.2861,-0.2852 h -8.503 c 0.1519,0 0.2851,0.121 0.2851,0.2852 v -17.0082 c 0,0.157 -0.121,0.29 -0.2851,0.29 h 8.503 c 0.1531,0 0.2861,-0.1219 0.2861,-0.29 v -17.007 c 0,-0.1531 -0.1211,-0.286 -0.2861,-0.286 h -8.503 c 0.1519,0 0.2851,0.1221 0.2851,0.286 v -18.4221 c 0,-0.1559 -0.121,-0.2888 -0.2851,-0.2888 h -28.6019 c 0.1559,0 0.2888,0.121 0.2888,0.2888 v -8.5039 c 0,-0.1559 -0.125,-0.2889 -0.2888,-0.2889 H 97.5061 c -0.1559,0 -0.2888,0.1211 -0.2888,0.2889 v 8.5039 c 0,-0.1559 0.1207,-0.2888 0.2888,-0.2888 H 80.4983 c 0.157,0 0.2888,0.121 0.2888,0.2888 v -8.5039 c 0,-0.1559 -0.125,-0.2889 -0.2888,-0.2889 H 63.4912 c -0.157,0 -0.2899,0.1211 -0.2899,0.2889 v 8.5039 c 0,-0.1559 0.1218,-0.2888 0.2899,-0.2888 H 34.8891 c -0.1559,0 -0.2888,0.121 -0.2888,0.2888 v 18.4221 c 0,-0.1531 0.121,-0.2849 0.2888,-0.2849 h -8.5039 c -0.1559,0 -0.2889,0.121 -0.2889,0.2849 v 17.007 c 0,0.157 0.1208,0.29 0.2889,0.29 h 8.5039 c -0.1559,0 -0.2888,-0.1219 -0.2888,-0.29 v 17.0082 c 0,-0.1523 0.121,-0.2852 0.2888,-0.2852 h -8.5039 c -0.1559,0 -0.2889,0.121 -0.2889,0.2852 v 17.0078 c 0,0.1559 0.1208,0.2889 0.2889,0.2889 h 8.5039 c -0.1559,0 -0.2888,-0.1208 -0.2888,-0.2889 v 17.0079 c 0,-0.1519 0.121,-0.2849 0.2888,-0.2849 h -8.5039 c -0.1559,0 -0.2889,0.1211 -0.2889,0.2849 v 17.0082 c 0,0.1559 0.1208,0.2888 0.2889,0.2888 h 8.5039 c -0.1559,0 -0.2888,-0.1207 -0.2888,-0.2888 v 17.0078 c 0,-0.1527 0.121,-0.286 0.2888,-0.286 h -8.5039 c -0.1559,0 -0.2889,0.1211 -0.2889,0.286 v 17.0071 c 0,0.157 0.1208,0.2891 0.2889,0.2891 h 8.5039 c -0.1559,0 -0.2888,-0.121 -0.2888,-0.2891 v 17.0121 c 0,-0.1562 0.121,-0.2891 0.2888,-0.2891 h -8.5039 c -0.1559,0 -0.2889,0.121 -0.2889,0.2891 v 17.0079 c 0,0.1519 0.1208,0.2851 0.2889,0.2851 h 8.5039 c -0.1559,0 -0.2888,-0.121 -0.2888,-0.2851 v 17.0081 c 0,-0.157 0.121,-0.2891 0.2888,-0.2891 h -8.5039 c -0.1559,0 -0.2889,0.121 -0.2889,0.2891 v 17.007 c 0,0.1528 0.1208,0.2861 0.2889,0.2861 h 8.5039 c -0.1559,0 -0.2888,-0.1211 -0.2888,-0.2861 v 17.0079 c 0,-0.1559 0.121,-0.2891 0.2888,-0.2891 h -8.5039 c -0.1559,0 -0.2889,0.121 -0.2889,0.2891 v 17.0079 c 0,0.1522 0.1208,0.2852 0.2889,0.2852 h 8.5039 c -0.1559,0 -0.2888,-0.1211 -0.2888,-0.2852 v 18.4221 c 0,0.1562 0.121,0.2891 0.2888,0.2891 z"
         style="fill:none;stroke:#000000;stroke-width:0.56720001;stroke-linecap:butt;stroke-linejoin:miter;stroke-dasharray:none"
         id="path3982"
         inkscape:connector-curvature="0" />
      <path
         d="m 164.9401,407.6467 h 28.601 c -0.1559,0 -0.2888,-0.121 -0.2888,-0.2891 v 8.5039 c 0,0.1562 0.121,0.2891 0.2888,0.2891 h 17.0082 c 0.1519,0 0.2848,-0.121 0.2848,-0.2891 v -8.5039 c 0,0.1562 -0.121,0.2891 -0.2848,0.2891 h 17.0078 c -0.1559,0 -0.2888,-0.121 -0.2888,-0.2891 v 8.5039 c 0,0.1562 0.1207,0.2891 0.2888,0.2891 h 17.0082 c 0.1519,0 0.2888,-0.121 0.2888,-0.2891 v -8.5039 c 0,0.1562 -0.125,0.2891 -0.2888,0.2891 h 28.601 c 0.1528,0 0.2849,-0.121 0.2849,-0.2891 v -18.4221 c 0,0.1522 -0.1211,0.2852 -0.2849,0.2852 h 8.5039 c 0.1531,0 0.2849,-0.1211 0.2849,-0.2852 v -17.0079 c 0,-0.1559 -0.121,-0.2891 -0.2849,-0.2891 h -8.5039 c 0.1528,0 0.2849,0.121 0.2849,0.2891 v -17.0079 c 0,0.1528 -0.1211,0.2861 -0.2849,0.2861 h 8.5039 c 0.1531,0 0.2849,-0.1211 0.2849,-0.2861 v -17.007 c 0,-0.157 -0.121,-0.2891 -0.2849,-0.2891 h -8.5039 c 0.1528,0 0.2849,0.121 0.2849,0.2891 v -17.0081 c 0,0.1519 -0.1211,0.2851 -0.2849,0.2851 h 8.5039 c 0.1531,0 0.2849,-0.121 0.2849,-0.2851 v -17.0079 c 0,-0.1562 -0.121,-0.2891 -0.2849,-0.2891 h -8.5039 c 0.1528,0 0.2849,0.121 0.2849,0.2891 v -17.0121 c 0,0.157 -0.1211,0.2891 -0.2849,0.2891 h 8.5039 c 0.1531,0 0.2849,-0.121 0.2849,-0.2891 v -17.0071 c 0,-0.1527 -0.121,-0.286 -0.2849,-0.286 h -8.5039 c 0.1528,0 0.2849,0.1211 0.2849,0.286 v -17.0078 c 0,0.1559 -0.1211,0.2888 -0.2849,0.2888 h 8.5039 c 0.1531,0 0.2849,-0.1207 0.2849,-0.2888 v -17.0082 c 0,-0.1519 -0.121,-0.2849 -0.2849,-0.2849 h -8.5039 c 0.1528,0 0.2849,0.1211 0.2849,0.2849 v -17.0079 c 0,0.1559 -0.1211,0.2889 -0.2849,0.2889 h 8.5039 c 0.1531,0 0.2849,-0.1208 0.2849,-0.2889 v -17.0078 c 0,-0.1523 -0.121,-0.2852 -0.2849,-0.2852 h -8.5039 c 0.1528,0 0.2849,0.121 0.2849,0.2852 v -17.0082 c 0,0.157 -0.1211,0.29 -0.2849,0.29 h 8.5039 c 0.1531,0 0.2849,-0.1219 0.2849,-0.29 v -17.007 c 0,-0.1531 -0.121,-0.286 -0.2849,-0.286 h -8.5039 c 0.1528,0 0.2849,0.1221 0.2849,0.286 v -18.4221 c 0,-0.1559 -0.1211,-0.2888 -0.2849,-0.2888 h -28.601 c 0.1519,0 0.2888,0.121 0.2888,0.2888 v -8.5039 c 0,-0.1559 -0.125,-0.2889 -0.2888,-0.2889 h -17.0082 c -0.1559,0 -0.2888,0.1211 -0.2888,0.2889 v 8.5039 c 0,-0.1559 0.1207,-0.2888 0.2888,-0.2888 h -17.0078 c 0.1519,0 0.2848,0.121 0.2848,0.2888 v -8.5039 c 0,-0.1559 -0.121,-0.2889 -0.2848,-0.2889 h -17.0082 c -0.1559,0 -0.2888,0.1211 -0.2888,0.2889 v 8.5039 c 0,-0.1559 0.121,-0.2888 0.2888,-0.2888 h -28.601 c -0.1559,0 -0.2889,0.121 -0.2889,0.2888 v 18.4221 c 0,-0.1531 0.1211,-0.286 0.2889,-0.286 h -8.5039 c -0.1559,0 -0.2889,0.1221 -0.2889,0.286 v 17.007 c 0,0.157 0.1208,0.29 0.2889,0.29 h 8.5039 c -0.1559,0 -0.2889,-0.1219 -0.2889,-0.29 v 17.0082 c 0,-0.1523 0.1211,-0.2852 0.2889,-0.2852 h -8.5039 c -0.1559,0 -0.2889,0.121 -0.2889,0.2852 v 17.0078 c 0,0.1559 0.1208,0.2889 0.2889,0.2889 h 8.5039 c -0.1559,0 -0.2889,-0.1208 -0.2889,-0.2889 v 17.0079 c 0,-0.1519 0.1211,-0.2849 0.2889,-0.2849 h -8.5039 c -0.1559,0 -0.2889,0.1211 -0.2889,0.2849 v 17.0082 c 0,0.1559 0.1208,0.2888 0.2889,0.2888 h 8.5039 c -0.1559,0 -0.2889,-0.1207 -0.2889,-0.2888 v 17.0078 c 0,-0.1527 0.1211,-0.286 0.2889,-0.286 h -8.5039 c -0.1559,0 -0.2889,0.1211 -0.2889,0.286 v 17.0071 c 0,0.157 0.1208,0.2891 0.2889,0.2891 h 8.5039 c -0.1559,0 -0.2889,-0.121 -0.2889,-0.2891 v 17.0121 c 0,-0.1562 0.1211,-0.2891 0.2889,-0.2891 h -8.5039 c -0.1559,0 -0.2889,0.121 -0.2889,0.2891 v 17.0079 c 0,0.1519 0.1208,0.2851 0.2889,0.2851 h 8.5039 c -0.1559,0 -0.2889,-0.121 -0.2889,-0.2851 v 17.0081 c 0,-0.157 0.1211,-0.2891 0.2889,-0.2891 h -8.5039 c -0.1559,0 -0.2889,0.121 -0.2889,0.2891 v 17.007 c 0,0.1528 0.1208,0.2861 0.2889,0.2861 h 8.5039 c -0.1559,0 -0.2889,-0.1211 -0.2889,-0.2861 v 17.0079 c 0,-0.1559 0.1211,-0.2891 0.2889,-0.2891 h -8.5039 c -0.1559,0 -0.2889,0.121 -0.2889,0.2891 v 17.0079 c 0,0.1522 0.1208,0.2852 0.2889,0.2852 h 8.5039 c -0.1559,0 -0.2889,-0.1211 -0.2889,-0.2852 v 18.4221 c 0,0.1562 0.1211,0.2891 0.2889,0.2891 z"
         style="fill:none;stroke:#000000;stroke-width:0.56690001;stroke-linecap:butt;stroke-linejoin:miter;stroke-dasharray:none"
         id="path3984"
         inkscape:connector-curvature="0" />
      <path
         d="m 65.2842,318.4597 h 46.2149 v 37.1409 H 65.2842 Z"
         style="fill:none;stroke:#000000;stroke-width:0.55930001;stroke-linecap:butt;stroke-linejoin:miter;stroke-dasharray:none"
         id="path3986"
         inkscape:connector-curvature="0" />
      <path
         d="m 339.7442,431.5915 h 41.8051 v 19.5701 h -41.8051 z"
         style="fill:none;stroke:#000000;stroke-width:0.55760002;stroke-linecap:butt;stroke-linejoin:miter;stroke-dasharray:none"
         id="path3988"
         inkscape:connector-curvature="0" />
      <path
         d="m 413.1312,580.1346 c 0,14.8989 -12.0782,26.9771 -26.9768,26.9771 -14.8975,0 -26.9756,-12.0782 -26.9756,-26.9771 0,-14.902 12.0781,-26.9799 26.9756,-26.9799 14.8986,0 26.9768,12.0779 26.9768,26.9799 z"
         style="fill:none;stroke:#000000;stroke-width:0.55500001;stroke-linecap:butt;stroke-linejoin:miter;stroke-dasharray:none"
         id="path3990"
         inkscape:connector-curvature="0" />
      <path
         d="m 53.8342,571.1587 h 71.6451 v 55.4879 H 53.8342 Z"
         style="fill:none;stroke:#000000;stroke-width:0.63779998;stroke-linecap:butt;stroke-linejoin:miter;stroke-dasharray:none"
         id="path3992"
         inkscape:connector-curvature="0" />
      <path
         d="m 257.6001,615.8146 h 42.4962 v 18.6369 h -42.4962 z"
         style="fill:none;stroke:#000000;stroke-width:0.56010002;stroke-linecap:butt;stroke-linejoin:miter;stroke-dasharray:none"
         id="path3994"
         inkscape:connector-curvature="0" />
      <path
         d="m 257.6001,498.3806 h 42.4962 v 18.6409 h -42.4962 z"
         style="fill:none;stroke:#000000;stroke-width:0.56010002;stroke-linecap:butt;stroke-linejoin:miter;stroke-dasharray:none"
         id="path3996"
         inkscape:connector-curvature="0" />
      <path
         d="m 109.1263,233.5904 c -0.7644,4.1796 4.1412,1.6892 7.4086,5.7961 2.2344,2.8086 2.8613,6.4565 0.7114,9.9151 -3.6361,5.8495 -10.224,3.1054 -12.0477,4.4513 -0.7533,0.556 -1.0633,0.9275 -2.101,1.3586 -1.6984,0.7055 -4.0551,0.642 -5.6213,-0.1151 -1.1702,-0.5657 -2.3559,-2.4131 -4.7596,-1.5127 -0.7261,0.272 -1.1505,0.9671 -1.8248,1.4416 -0.7295,0.5133 -1.4158,0.8473 -2.3682,1.0702 -2.0444,0.4787 -3.6296,0.0791 -5.1526,-0.7982 -1.3818,-0.7959 -2.2963,-2.5617 -4.8427,-1.8022 -0.5555,0.1657 -0.4799,0.4227 -0.7262,0.8134 -0.9316,1.4771 -5.5405,2.9285 -8.6677,0.4358 -0.8373,-0.6673 -0.6974,-0.9478 -2.1244,-1.1672 -2.5815,-0.3969 -5.0897,-1.5835 -6.7063,-3.4048 -6.6783,-7.524 -2.3521,-18.3443 6.3486,-20.0688 2.7316,-0.5415 2.0428,-1.4107 3.1223,-3.5877 1.4801,-2.985 3.6142,-5.408 6.5762,-6.841 7.5705,-3.6625 15.003,-0.6054 18.7954,4.4101 0.8781,1.1614 1.6111,3.2745 2.8916,3.6572 1.248,0.3729 1.5111,-0.2662 2.3651,-0.6863 4.1712,-2.0521 9.6223,1.7192 8.7233,6.6346 z m -1.2417,29.9759 c -0.1821,1.7483 0.9674,1.9608 2.0201,1.1785 0.4074,-1.8567 -1.0778,-1.9828 -2.0201,-1.1785 z m -10.4819,-0.0114 c -1.0605,-0.847 -2.5769,-0.375 -2.0425,1.01 0.2773,0.7186 2.3402,1.2328 2.0425,-1.01 z m 9.1115,9.9046 c 0.2447,-2.3466 -1.9067,-2.1211 -2.2919,-0.9697 -0.2279,0.6812 0.1928,1.2966 0.685,1.492 0.7547,0.2998 1.1704,-0.1721 1.6069,-0.5223 z m 1.5079,0.4473 1.8228,-10e-4 -0.0364,-7.7022 -1.904,-0.0223 z m -12.5717,-1.0314 -0.0046,0.344 0.0258,0.6887 1.816,-0.005 -0.0346,-7.6999 -1.9062,-0.0235 z m 5.2791,0.9199 c 0.4145,-5.9176 -1.0655,-5.5146 2.7011,-5.7217 l 0.049,-1.7893 c -1.2641,-0.3696 -2.0029,0.3995 -2.8561,0.7079 l -0.2975,-0.9664 -1.7149,0.16 c 0.7196,4.1484 0.1795,4.5283 0.3805,7.6884 z M 85.4336,195.9326 c -0.5195,0.1945 -0.5165,0.068 -0.8945,0.5593 -0.7264,0.9438 -0.4252,2.9164 -0.1172,3.8507 0.5593,1.696 2.4286,1.3329 4.0541,0.7617 3.9478,-1.3871 -0.8862,-5.9789 -3.0424,-5.1717 z m 27.3116,74.8801 c -0.9019,-3.4377 3.5352,-4.4834 4.2301,-1.5124 0.7856,3.3596 -3.4704,4.408 -4.2301,1.5124 z m -1.6911,0.1719 c 1.0388,4.8592 8.6458,3.6809 7.6025,-1.8533 -0.9344,-4.9563 -8.7821,-3.6641 -7.6025,1.8533 z m -35.3213,-4.4833 c 0.5151,2.8263 0.254,4.5416 0.3641,7.408 l 1.8307,-0.0556 c 0.0155,-3.413 -0.711,-6.0063 1.8037,-6.2856 2.3462,-0.2606 1.3195,2.9817 1.5285,6.3364 l 1.8497,-0.0313 c -0.0036,-1.5456 0.2144,-5.7376 -0.3283,-6.8223 -0.3737,-0.7467 -1.3208,-1.1903 -2.5284,-1.0163 -0.8678,0.125 -1.6659,0.8174 -2.3527,1.2363 l -0.2698,-1.0828 z m -5.8229,1.176 c 2.9741,-1.0295 3.6908,4.0018 1.2786,4.7621 -2.8431,0.8961 -4.0863,-3.7902 -1.2786,-4.7621 z m 4.683,6.0925 c 0.0029,-4.2833 -0.472,-2.3148 0.152,-7.4608 l -1.5722,-0.1232 c -0.1222,0.7338 -0.0901,0.8329 -0.4033,1.197 -2.2689,-2.7993 -6.1976,-1.1016 -6.2643,2.5692 -0.0331,1.8273 0.8573,3.1459 2.0424,3.7575 1.9894,1.0267 2.9459,-0.1728 4.17,-0.7926 l 0.2669,1.0049 z m -9.5032,-3.075 c -0.969,0.6178 -2.0711,2.0848 -4.1136,1.3096 -2.8712,-1.0897 -2.8088,-6.5459 -0.1264,-7.6656 1.9821,-0.8275 3.2238,0.4212 4.0358,1.3031 0.5218,-0.2826 0.872,-0.8581 1.0508,-1.5329 -0.8175,-1.6536 -3.931,-2.5374 -6.1739,-1.3764 -1.7083,0.8843 -2.9856,2.7386 -2.9649,5.5026 0.0507,6.7679 7.379,7.0897 9.2174,3.7808 -0.2024,-0.5406 -0.6025,-1.0114 -0.9252,-1.3212 z m 25.8296,-0.8853 c -0.7102,0.1481 -1.6491,0.1911 -2.473,0.156 -1.1111,-0.0471 -1.0709,-0.3155 -0.7061,-1.2409 0.3749,-0.9512 0.9352,-2.8271 1.4138,-3.5548 0.4084,0.4866 1.6743,3.7965 1.7653,4.6397 z m -4.9252,4.0291 c 0.3755,-0.8354 0.5439,-1.5998 0.8974,-2.3351 l 4.6338,0.0407 c 0.3999,0.6105 0.6878,1.6926 0.9951,2.3514 l 2.1434,-0.04 -4.4272,-11.3354 -1.942,0.0532 c -0.6757,1.0634 -4.1024,9.9119 -4.368,11.3443 z M 72.7757,200.7594 c 0.8089,-0.585 1.8015,-0.7823 2.6713,-0.3109 l -0.0474,0.9951 c -0.9612,0.3551 -2.0745,0.2141 -2.6239,-0.6842 z m 21.8606,11.0009 c 0.6674,-1.0573 4.6005,-4.2794 4.0522,-5.7391 -0.7772,-2.0685 -5.3459,0.6074 -7.1455,1.2671 -2.4919,0.9134 -6.3383,0.7528 -8.4789,-0.4271 -1.7674,-0.9741 -3.4289,-3.33 -3.7116,-6.1035 -0.3271,-3.2083 0.8057,-6.0835 2.3266,-7.6522 1.7828,-1.8391 3.4656,-2.7776 6.9533,-2.8426 7.3265,-0.1366 8.0896,4.2747 9.9243,9.8445 3.1848,-0.1768 5.6207,-0.0679 8.2629,-1.105 1.9345,-0.7592 5.3197,-2.9182 6.0465,-3.0632 0.2976,10.2659 -5.1415,7.399 -10.7775,10.3539 -3.1406,1.6466 -2.3889,4.4663 3.1389,3.3185 5.1664,-1.0729 3.7013,-1.6959 8.4251,0.2203 -0.4886,1.2126 -2.4898,2.9393 -3.4945,3.6859 -2.3712,1.7623 -8.8305,2.1939 -11.4801,1.1025 -1.4904,-0.6139 -3.331,-1.7179 -4.0417,-2.86 z M 75.4671,197.0448 c -1.6335,0.8975 -2.7612,0.8957 -3.5098,1.3058 -0.6469,0.3543 -1.8966,1.9482 -2.0377,2.9244 0.2488,1.2012 4.493,2.9364 5.8782,3.5474 1.8767,0.8277 0.4519,1.0689 2.6713,3.1851 2.4013,2.2896 7.2328,3.6866 11.9814,3.4407 0.1053,2.3651 2.1603,4.2672 3.6489,5.1709 1.9485,1.1828 3.7468,1.5581 4.2182,3.0735 -2.096,-0.3074 -1.2681,-0.6448 -3.9093,-2.528 -1.1874,-0.8465 -2.6586,-1.7788 -4.0341,-2.3097 -3.4507,-1.3319 -6.7977,-1.8551 -11.0482,-1.0501 -6.18,1.1706 -12.0596,6.4099 -13.8113,11.7675 -10.6678,2.2785 -15.639,14.2356 -10.7509,23.1675 2.1832,3.9892 5.651,6.9506 10.7413,8.1462 1.1503,0.2702 4.7004,4.1695 11.0174,2.2161 1.5998,-0.4946 2.4311,-1.3282 3.1776,-1.6248 2.1307,1.3805 3.5211,2.8531 7.3913,2.8371 4.5474,-0.0189 5.9384,-2.2499 7.2193,-3.0253 1.8831,1.0454 3.3348,1.9913 6.36,2.0106 2.7594,0.0175 4.619,-0.8671 6.3458,-2.003 0.782,-0.5145 2.5859,-0.2784 3.7978,-0.3238 13.5419,-0.508 17.2188,-20.083 2.7924,-24.63 -0.3741,-3.5495 -0.9558,-5.7053 -3.898,-8.138 -2.5651,-2.1209 -5.4351,-2.7401 -9.5845,-1.9321 0.22,-2.9799 3.7775,-2.9528 6.4767,-3.3935 5.642,-0.921 9.4462,-2.8635 11.4208,-8.4866 0.3515,-1.0012 1.051,-3.044 0.345,-3.9569 -0.6521,-0.8433 -3.0186,-0.532 -4.1457,-0.8327 1.3941,-2.7402 2.075,-2.291 2.8589,-7.5056 0.4915,-3.2685 -0.3992,-5.7876 -1.7723,-8.3255 -3.1698,0.9227 -4.5166,3.6021 -9.6263,5.5356 -1.5716,0.5947 -2.5109,0.628 -4.1539,0.9863 -0.265,-1.2695 -1.1036,-3.1978 -1.7834,-4.2384 -0.9898,-1.515 -1.56,-2.1472 -2.7366,-3.2744 -5.9963,-5.7454 -18.5616,-3.4512 -21.0078,5.6896 -0.2142,0.8007 -0.2594,1.8926 -0.5325,2.5741 z"
         style="fill:#009ee0;fill-rule:evenodd;stroke:#009ee0;stroke-width:0.21600001;stroke-linecap:butt;stroke-linejoin:miter;stroke-dasharray:none"
         id="path3998"
         inkscape:connector-curvature="0" />
    </g>
  </g>
</svg>
